#!OML:ASF I:\Actors\actors\Patient Classification 1\Patient 1\Session 1\Subject1.ASF
:FULLY-SPECIFIED
:DEGREES
956
root 0.668143 17.4744 9.69585 8.72537 0.919886 -8.45107
lowerback -1.13469 1.11825 7.40539
upperback -10.826 1.97334 0.98836
thorax -10.7764 0.340982 -3.21848
lowerneck -6.56528 -3.97765 -4.65667
upperneck 15.8084 -6.72777 11.2758
head 6.40469 -2.7203 3.85982
rclavicle 1.23246e-014 -3.18055e-015
rhumerus -60.5775 -0.936767 -86.6315
rradius 63.4388
rwrist 11.4807
rhand -5.74635 -20.1998
rfingers 7.12502
rthumb 20.0762 -49.1825
lclavicle 1.23246e-014 -3.18055e-015
lhumerus -60.2248 4.1266 80.9974
lradius 60.3552
lwrist 13.7666
lhand -32.0032 -34.424
lfingers 7.12502
lthumb -5.25185 -4.5091
rfemur -1.78925 24.5902 26.2008
rtibia 2.61417
rfoot -12.911 -25.8072
rtoes 2.30991
lfemur 8.83452 -46.0541 -15.126
ltibia -5.47386
lfoot -19.6313 51.8214
ltoes 5.64958
957
root 0.669697 17.4733 9.69771 8.68107 0.901721 -8.48945
lowerback -1.16106 1.09639 7.40068
upperback -10.8404 1.9474 1.05449
thorax -10.7824 0.332038 -3.14197
lowerneck -6.4872 -3.94338 -4.7114
upperneck 16.1943 -6.70109 11.1996
head 6.50925 -2.70808 3.85177
rclavicle 2.71341e-014 -6.75868e-015
rhumerus -60.2415 -1.21336 -86.3826
rradius 61.0413
rwrist 12.6334
rhand -5.08928 -20.1645
rfingers 7.12502
rthumb 20.7076 -49.0797
lclavicle 2.71341e-014 -6.75868e-015
lhumerus -59.7963 4.09304 81.1932
lradius 58.1593
lwrist 13.6994
lhand -32.422 -34.1001
lfingers 7.12502
lthumb -5.65617 -4.19561
rfemur -1.68239 24.6347 26.2806
rtibia 2.57728
rfoot -12.9708 -25.8033
rtoes 2.64721
lfemur 8.84668 -45.7664 -15.0559
ltibia -5.52784
lfoot -19.2636 51.6352
ltoes 5.20399
958
root 0.671342 17.4729 9.70222 8.6345 0.885527 -8.4624
lowerback -0.815313 1.15325 7.53991
upperback -11.1294 2.07055 0.917449
thorax -11.3107 0.343828 -3.38767
lowerneck -6.36067 -4.00944 -4.59623
upperneck 17.05 -6.86411 11.0075
head 6.76239 -2.77442 3.7665
rclavicle -2.03754e-014 -1.66979e-014
rhumerus -60.5013 -1.81026 -86.2268
rradius 58.8589
rwrist 12.788
rhand -5.02712 -19.8796
rfingers 7.12502
rthumb 20.7674 -48.7883
lclavicle -2.03754e-014 -1.66979e-014
lhumerus -59.8461 3.60641 81.3709
lradius 56.254
lwrist 13.5741
lhand -33.1109 -32.7265
lfingers 7.12502
lthumb -6.32124 -2.84082
rfemur -1.54113 24.6091 26.2849
rtibia 2.46982
rfoot -12.9533 -25.7945
rtoes 2.73447
lfemur 8.91325 -45.6015 -15.1319
ltibia -5.54419
lfoot -19.1108 51.5178
ltoes 4.98964
959
root 0.672577 17.4731 9.70514 8.62159 0.872064 -8.36461
lowerback -1.27454 1.07024 7.19661
upperback -10.8449 1.8959 1.10715
thorax -10.7266 0.330867 -2.96552
lowerneck -6.97904 -3.92403 -4.55793
upperneck 17.8678 -6.75474 10.6555
head 7.11306 -2.70427 3.65249
rclavicle 1.39149e-015 -8.34896e-015
rhumerus -59.5687 -1.71038 -86.0726
rradius 56.6168
rwrist 12.3807
rhand -4.72426 -19.885
rfingers 7.12502
rthumb 21.0583 -48.7616
lclavicle 1.39149e-015 -8.34896e-015
lhumerus -58.9693 4.06197 81.5827
lradius 54.1471
lwrist 12.9606
lhand -33.4456 -31.776
lfingers 7.12502
lthumb -6.64439 -1.90019
rfemur -1.46427 24.5615 26.1749
rtibia 2.35812
rfoot -12.8412 -25.7761
rtoes 2.50819
lfemur 8.96975 -45.6394 -15.3158
ltibia -5.51376
lfoot -19.3082 51.52
ltoes 5.20879
960
root 0.672538 17.4722 9.70457 8.62002 0.885172 -8.32538
lowerback -1.28578 1.0404 7.10217
upperback -10.8702 1.85484 1.1468
thorax -10.7551 0.320295 -2.86725
lowerneck -7.20104 -3.93406 -4.53885
upperneck 18.6072 -6.82573 10.5746
head 7.39529 -2.71667 3.62113
rclavicle -6.16232e-015 -7.55382e-015
rhumerus -59.1664 -1.88094 -85.9879
rradius 54.213
rwrist 12.7489
rhand -5.04732 -19.4061
rfingers 7.12502
rthumb 20.7479 -48.3169
lclavicle -6.16232e-015 -7.55382e-015
lhumerus -58.5221 4.15203 81.649
lradius 51.9374
lwrist 12.2278
lhand -33.5924 -31.5401
lfingers 7.12502
lthumb -6.78608 -1.6689
rfemur -1.43732 24.6124 26.1325
rtibia 2.32038
rfoot -12.8078 -25.8216
rtoes 2.52105
lfemur 8.92024 -45.592 -15.3245
ltibia -5.48493
lfoot -19.3067 51.4501
ltoes 5.26243
961
root 0.672039 17.471 9.70314 8.59487 0.899324 -8.32177
lowerback -0.863745 1.0963 7.28774
upperback -11.1867 1.98457 0.987281
thorax -11.3613 0.327426 -3.1642
lowerneck -6.99981 -3.94104 -4.50626
upperneck 19.2982 -6.92063 10.6088
head 7.59227 -2.74466 3.63053
rclavicle -2.38542e-015 8.34896e-015
rhumerus -59.3836 -2.55003 -85.8729
rradius 51.4357
rwrist 15.0286
rhand -6.55236 -17.7361
rfingers 7.12502
rthumb 19.3013 -46.7983
lclavicle -2.38542e-015 8.34896e-015
lhumerus -58.4969 3.79886 81.5987
lradius 49.7481
lwrist 11.6018
lhand -33.8148 -31.3759
lfingers 7.12502
lthumb -7.00078 -1.51169
rfemur -1.3966 24.7378 26.1492
rtibia 2.30848
rfoot -12.8413 -25.9324
rtoes 2.70299
lfemur 8.82485 -45.3681 -15.2298
ltibia -5.4688
lfoot -18.9577 51.2684
ltoes 4.93334
962
root 0.6725 17.4698 9.70307 8.55391 0.885871 -8.29671
lowerback -1.25937 1.04936 7.11165
upperback -10.9161 1.87092 1.12731
thorax -10.8221 0.322821 -2.89547
lowerneck -7.40287 -3.86039 -4.45279
upperneck 19.8634 -6.80936 10.3467
head 7.83152 -2.68211 3.5455
rclavicle -3.97569e-015 -1.98785e-015
rhumerus -58.4875 -2.84823 -85.5583
rradius 49.1746
rwrist 15.6324
rhand -6.2485 -17.5081
rfingers 7.12502
rthumb 19.5935 -46.5408
lclavicle -3.97569e-015 -1.98785e-015
lhumerus -57.5056 4.34732 81.5782
lradius 47.4115
lwrist 10.8399
lhand -33.5519 -30.9422
lfingers 7.12502
lthumb -6.74697 -1.06972
rfemur -1.32133 24.87 26.15
rtibia 2.26788
rfoot -12.823 -26.0546
rtoes 2.70572
lfemur 8.82235 -45.212 -15.2443
ltibia -5.46151
lfoot -18.7976 51.1457
ltoes 4.82967
963
root 0.673106 17.4688 9.70391 8.52726 0.860217 -8.29942
lowerback -1.25819 1.0545 7.12883
upperback -10.9614 1.88192 1.13416
thorax -10.8746 0.324179 -2.8986
lowerneck -7.53108 -3.84708 -4.41151
upperneck 20.679 -6.84243 10.192
head 8.1219 -2.6831 3.49286
rclavicle 2.5842e-015 -1.03368e-014
rhumerus -58.1712 -3.41359 -85.2044
rradius 47.0617
rwrist 16.5182
rhand -5.79491 -17.4975
rfingers 7.12502
rthumb 20.0295 -46.4851
lclavicle 2.5842e-015 -1.03368e-014
lhumerus -57.0585 4.63386 81.4009
lradius 45.2013
lwrist 10.0763
lhand -32.8368 -29.8734
lfingers 7.12502
lthumb -6.05662 0.0200258
rfemur -1.26562 24.9699 26.1791
rtibia 2.24734
rfoot -12.821 -26.1405
rtoes 2.70256
lfemur 8.87748 -45.2011 -15.2792
ltibia -5.46986
lfoot -18.9085 51.1315
ltoes 4.98961
964
root 0.673876 17.4683 9.70525 8.50165 0.83091 -8.29908
lowerback -1.27898 1.04343 7.1324
upperback -10.9916 1.86851 1.15484
thorax -10.8992 0.316951 -2.87686
lowerneck -7.47418 -3.76056 -4.1862
upperneck 21.2348 -6.76505 9.98195
head 8.27639 -2.63503 3.40037
rclavicle -2.38542e-015 -2.38542e-015
rhumerus -57.847 -3.90453 -84.8701
rradius 45.023
rwrist 17.7969
rhand -6.36113 -18.86
rfingers 7.12502
rthumb 19.4852 -47.9037
lclavicle -2.38542e-015 -2.38542e-015
lhumerus -56.565 5.11747 81.1116
lradius 42.9638
lwrist 9.21958
lhand -32.243 -28.7698
lfingers 7.12502
lthumb -5.48334 1.13927
rfemur -1.22018 24.9966 26.1972
rtibia 2.22941
rfoot -12.85 -26.1559
rtoes 2.81066
lfemur 8.95046 -45.2259 -15.3359
ltibia -5.48281
lfoot -18.9643 51.1664
ltoes 5.0075
965
root 0.676118 17.4679 9.70621 8.46357 0.801722 -8.28002
lowerback -0.688224 1.12472 7.44185
upperback -11.4384 2.05629 0.913488
thorax -11.7544 0.321709 -3.34185
lowerneck -7.0467 -3.77069 -3.84917
upperneck 22.0044 -6.87102 9.79013
head 8.4475 -2.66857 3.28548
rclavicle 2.98177e-016 1.03368e-014
rhumerus -58.3734 -4.80729 -84.5507
rradius 43.0171
rwrist 19.0946
rhand -5.59622 -19.0001
rfingers 7.12502
rthumb 20.2205 -47.9676
lclavicle 2.98177e-016 1.03368e-014
lhumerus -56.6984 5.12393 80.5952
lradius 40.7509
lwrist 8.42642
lhand -31.7839 -27.9958
lfingers 7.12502
lthumb -5.04008 1.92422
rfemur -1.16144 24.9705 26.183
rtibia 2.20169
rfoot -12.8781 -26.1134
rtoes 2.99907
lfemur 9.02555 -45.2138 -15.4299
ltibia -5.47351
lfoot -19.0074 51.1732
ltoes 5.12489
966
root 0.678175 17.4675 9.70572 8.41775 0.76804 -8.28031
lowerback -0.462368 1.13989 7.57036
upperback -11.5904 2.11001 0.853447
thorax -12.0651 0.314936 -3.49048
lowerneck -6.9873 -3.78696 -3.84411
upperneck 22.7267 -6.94227 9.68335
head 8.68392 -2.69463 3.2531
rclavicle -2.18663e-015 2.62396e-014
rhumerus -58.2772 -5.52021 -84.0653
rradius 40.8509
rwrist 20.0355
rhand -4.03025 -18.6069
rfingers 7.12502
rthumb 21.7249 -47.4078
lclavicle -2.18663e-015 2.62396e-014
lhumerus -56.3723 5.65965 80.06
lradius 38.5159
lwrist 7.58279
lhand -31.3748 -27.2553
lfingers 7.12502
lthumb -4.64508 2.6738
rfemur -1.10893 24.9781 26.1966
rtibia 2.21239
rfoot -12.9114 -26.0905
rtoes 3.06174
lfemur 9.07069 -45.0911 -15.4702
ltibia -5.45672
lfoot -18.9816 51.0922
ltoes 5.2489
967
root 0.678664 17.4675 9.70475 8.37577 0.70839 -8.29042
lowerback -0.625284 1.11139 7.49798
upperback -11.4565 2.05251 0.958652
thorax -11.8165 0.314033 -3.32521
lowerneck -7.37727 -3.75024 -3.97107
upperneck 23.5758 -6.93979 9.64928
head 9.05304 -2.67359 3.27137
rclavicle -4.17448e-015 1.90833e-014
rhumerus -57.5766 -6.18884 -83.3516
rradius 38.6851
rwrist 20.7289
rhand -2.52546 -18.8649
rfingers 7.12502
rthumb 23.1693 -47.4915
lclavicle -4.17448e-015 1.90833e-014
lhumerus -55.5926 6.70321 79.4979
lradius 36.2555
lwrist 6.50339
lhand -31.031 -26.5378
lfingers 7.12502
lthumb -4.31308 3.39823
rfemur -1.06302 25.018 26.2317
rtibia 2.21299
rfoot -12.857 -26.1057
rtoes 2.76085
lfemur 9.10991 -44.9303 -15.4756
ltibia -5.46458
lfoot -18.7894 51.014
ltoes 4.9905
968
root 0.679144 17.4683 9.70451 8.34625 0.618928 -8.27389
lowerback -1.22123 1.06746 7.22414
upperback -11.0305 1.91582 1.19439
thorax -10.9758 0.329847 -2.88993
lowerneck -7.78666 -3.6843 -3.92292
upperneck 23.799 -6.77505 9.26667
head 9.1796 -2.61198 3.14501
rclavicle 4.17448e-015 1.47101e-014
rhumerus -56.3216 -6.97872 -82.3621
rradius 36.5632
rwrist 21.3841
rhand -0.980405 -19.4247
rfingers 7.12502
rthumb 24.651 -47.8571
lclavicle 4.17448e-015 1.47101e-014
lhumerus -54.367 8.22176 78.946
lradius 33.9777
lwrist 5.06027
lhand -30.6934 -25.7799
lfingers 7.12502
lthumb -3.98711 4.16252
rfemur -1.02018 25.0503 26.2216
rtibia 2.18458
rfoot -12.8206 -26.0777
rtoes 2.69617
lfemur 9.20185 -44.9221 -15.5653
ltibia -5.48104
lfoot -18.7577 51.0757
ltoes 4.80244
969
root 0.680174 17.4699 9.70487 8.31392 0.520419 -8.25635
lowerback -1.1972 1.11346 7.22632
upperback -11.0462 1.98117 1.19475
thorax -11.0017 0.360294 -2.89634
lowerneck -7.65299 -3.68148 -3.92636
upperneck 24.0775 -6.76647 9.13865
head 9.24614 -2.61815 3.10882
rclavicle -1.26228e-014 1.86858e-014
rhumerus -55.9417 -8.31035 -81.1331
rradius 34.4947
rwrist 22.294
rhand 0.889296 -19.9196
rfingers 7.12502
rthumb 26.4419 -48.0952
lclavicle -1.26228e-014 1.86858e-014
lhumerus -53.8998 9.21403 78.1849
lradius 31.8728
lwrist 3.41572
lhand -30.2542 -24.7601
lfingers 7.12502
lthumb -3.56292 5.18989
rfemur -0.975127 25.0805 26.209
rtibia 2.19393
rfoot -12.892 -25.9947
rtoes 2.86125
lfemur 9.36891 -45.0179 -15.7301
ltibia -5.50145
lfoot -19.0138 51.2234
ltoes 5.12939
970
root 0.681276 17.4707 9.70484 8.28889 0.443482 -8.27627
lowerback -1.18929 1.12967 7.26207
upperback -11.057 2.00756 1.21294
thorax -11.0167 0.37003 -2.89872
lowerneck -7.74304 -3.67106 -4.10536
upperneck 24.7174 -6.8252 9.31842
head 9.50599 -2.62564 3.20657
rclavicle -1.799e-014 -7.95139e-016
rhumerus -55.4846 -9.71607 -79.7461
rradius 32.2429
rwrist 23.2995
rhand 3.12134 -20.3375
rfingers 7.12502
rthumb 28.5765 -48.1733
lclavicle -1.799e-014 -7.95139e-016
lhumerus -53.4781 10.3313 77.3241
lradius 29.8622
lwrist 1.62835
lhand -29.6395 -23.4503
lfingers 7.12502
lthumb -2.96929 6.50882
rfemur -0.951899 25.0947 26.2413
rtibia 2.20977
rfoot -12.8568 -25.9312
rtoes 2.67436
lfemur 9.48895 -45.0594 -15.8077
ltibia -5.5181
lfoot -19.2972 51.3019
ltoes 5.60794
